<svg xmlns="http://www.w3.org/2000/svg" width="1440" height="900" viewBox="0 0 1440 900">
<rect x="0" y="0" width="1440" height="900" fill="#F6F7F8"/>

<text x="24" y="32" font-family="Inter, Arial, sans-serif" font-size="18" font-weight="800" fill="#111" text-anchor="start">S00  Гость: нужна регистрация</text>
<rect x="0" y="48" width="1440" height="72" rx="0" fill="#FFFFFF" stroke="#D0D0D0" stroke-width="1"/>
<rect x="24" y="64" width="40" height="40" rx="8" fill="#FFFFFF" stroke="#A0A0A0" stroke-width="2"/>
<text x="76" y="90" font-family="Inter, Arial, sans-serif" font-size="14" font-weight="700" fill="#111" text-anchor="start">Сервис для коллабораций</text>
<rect x="980" y="68" width="80" height="32" rx="10" fill="#F6F6F6" stroke="#D0D0D0" stroke-width="1"/>
<text x="1020" y="90" font-family="Inter, Arial, sans-serif" font-size="12" font-weight="600" fill="#333" text-anchor="middle">Профиль</text>
<rect x="1070" y="68" width="80" height="32" rx="10" fill="#F6F6F6" stroke="#D0D0D0" stroke-width="1"/>
<text x="1110" y="90" font-family="Inter, Arial, sans-serif" font-size="12" font-weight="600" fill="#333" text-anchor="middle">Проекты</text>
<rect x="1160" y="68" width="80" height="32" rx="10" fill="#F6F6F6" stroke="#D0D0D0" stroke-width="1"/>
<text x="1200" y="90" font-family="Inter, Arial, sans-serif" font-size="12" font-weight="600" fill="#333" text-anchor="middle">Заявки</text>
<rect x="1250" y="68" width="80" height="32" rx="10" fill="#F6F6F6" stroke="#D0D0D0" stroke-width="1"/>
<text x="1290" y="90" font-family="Inter, Arial, sans-serif" font-size="12" font-weight="600" fill="#333" text-anchor="middle">Матчи</text>
<rect x="1340" y="68" width="80" height="32" rx="10" fill="#F6F6F6" stroke="#D0D0D0" stroke-width="1"/>
<text x="1380" y="90" font-family="Inter, Arial, sans-serif" font-size="12" font-weight="600" fill="#333" text-anchor="middle">Выйти</text>
<rect x="460.0" y="220" width="520" height="320" rx="16" fill="#FFFFFF" stroke="#B9B9B9" stroke-width="2"/>
<text x="720.0" y="276" font-family="Inter, Arial, sans-serif" font-size="20" font-weight="800" fill="#111" text-anchor="middle">Доступ только для зарегистрированных</text>
<text x="720.0" y="318" font-family="Inter, Arial, sans-serif" font-size="14" font-weight="500" fill="#555" text-anchor="middle">Создайте профиль и находите партнёров для коллабораций</text>
<rect x="540.0" y="380" width="160" height="44" rx="10" fill="#F2F2F2" stroke="#8E8E8E" stroke-width="2"/>
<text x="620.0" y="408.0" font-family="Inter, Arial, sans-serif" font-size="14" font-weight="600" fill="#111" text-anchor="middle">Войти</text>
<rect x="740.0" y="380" width="160" height="44" rx="10" fill="#F2F2F2" stroke="#8E8E8E" stroke-width="2"/>
<text x="820.0" y="408.0" font-family="Inter, Arial, sans-serif" font-size="14" font-weight="600" fill="#111" text-anchor="middle">Зарегистрироваться</text>
<text x="720.0" y="460" font-family="Inter, Arial, sans-serif" font-size="12" font-weight="600" fill="#666" text-anchor="middle">Политика ПДн • Cookies</text>
</svg>
